<svg xmlns="http://www.w3.org/2000/svg" width="805" height="600"><rect width="805" height="600" x="0" y="0" fill="#1a1d21" id="background"/><g transform="translate(402.5,300)" id="viz"><path fill="#2ca02c" display="" d="M0.49999900911672546,-192.33268342146636A192.33333333333334,192.33333333333334,0,0,1,68.6696166741076,179.65688090619363L34.74552106691081,90.20639229141858A96.66666666666667,96.66666666666667,0,0,0,0.4999990091167196,-96.66537355969473Z"><title>LP</title></path><path fill="#1f77b4" display="" d="M67.73460228440614,180.01148509049204A192.33333333333334,192.33333333333334,0,1,1,-9.791657052990612,-192.0839258326103L-5.169646003454482,-96.52833368831874A96.66666666666667,96.66666666666667,0,1,0,33.81050667720933,90.560996475717Z"><title>CD</title></path><path fill="#d62728" display="" d="M-8.79282680561052,-192.13223911638997A192.33333333333334,192.33333333333334,0,0,1,-5.147330979224222,-192.26444313731398L-2.83565047629818,-96.6250667830078A96.66666666666667,96.66666666666667,0,0,0,-4.170815756074474,-96.57664697209842Z"><title>LP 7'</title></path><path fill="#ff7f0e" display="" d="M-4.147624946331868,-192.28860683466317A192.33333333333334,192.33333333333334,0,0,1,-0.4999990091167917,-192.33268342146636L-0.4999990091167314,-96.66537355969473A96.66666666666667,96.66666666666667,0,0,0,-1.8359444434059118,-96.64923048035702Z"><title>DVD-V</title></path><path fill="#2ca02c" display="" d="M0.49999900911674494,-288.9995674754391A289,289,0,0,1,288.90310182223135,-7.483164938275095L193.26415451203698,-5.1714948056897185A193.33333333333334,193.33333333333334,0,0,0,0.49999900911672607,-193.33268678309074Z"><title>Rock</title></path><path fill="#2ca02c" display="" d="M288.92726551958054,-6.483458905382811A289,289,0,0,1,280.7214228749557,68.67665352257852L187.8344478680457,45.78207041937065A193.33333333333334,193.33333333333334,0,0,0,193.28831820938623,-4.171788772797436Z"><title>Pop</title></path><path fill="#2ca02c" display="" d="M280.48210768493595,69.64759341582453A289,289,0,0,1,265.1522298074098,114.95779672627057L177.44558023838215,76.75183275754182A193.33333333333334,193.33333333333334,0,0,0,187.59513267802592,46.753010312616674Z"><title>Funk</title></path><path fill="#2ca02c" display="" d="M264.7528660152915,115.87458710471907A289,289,0,0,1,245.75968543359716,152.0630692034702L164.49373783235103,101.58537292208727A193.33333333333334,193.33333333333334,0,0,0,177.0462164462638,77.66862313599029Z"><title>Soul</title></path><path fill="#2ca02c" display="" d="M245.2320462351508,152.91253545514462A289,289,0,0,1,238.1260130930112,163.758974985883L159.39371378283514,109.41399263482442A193.33333333333334,193.33333333333334,0,0,0,163.96609863390472,102.43483917376163Z"><title>Folk</title></path><path fill="#2ca02c" display="" d="M237.55794947205177,164.58195722081476A289,289,0,0,1,234.09945349835922,169.46517598542053L156.70332121940885,113.2335943816346A193.33333333333334,193.33333333333334,0,0,0,158.8256501618757,110.23697486975615Z"><title>Urbano</title></path><path fill="#2ca02c" display="" d="M233.51166941091992,170.27419137651265A289,289,0,0,1,225.63864307425635,180.57741484362973L151.04962966520625,120.67223025941729A193.33333333333334,193.33333333333334,0,0,0,156.11553713196952,114.04260977272672Z"><title>Electrónica</title></path><path fill="#2ca02c" display="" d="M225.0124591176709,181.3570876525604A289,289,0,0,1,202.22728120491828,206.45853515044348L135.40287776339883,137.99941474936716A193.33333333333334,193.33333333333334,0,0,0,150.42344570862082,121.45190306834793Z"><title>Hip Hop</title></path><path fill="#2ca02c" display="" d="M201.51168366232423,207.15704513140597A289,289,0,0,1,192.016416047152,215.9877218001223L128.57753981683692,144.38003335789716A193.33333333333334,193.33333333333334,0,0,0,134.6872802208048,138.69792473032962Z"><title>R&amp;B</title></path><path fill="#2ca02c" display="" d="M191.26790678235443,216.6508431442088A289,289,0,0,1,158.79361183679134,241.4655023804155L106.36696467777743,161.44301348467897A193.33333333333334,193.33333333333334,0,0,0,127.82903055203938,145.04315470198364Z"><title>Jazz</title></path><path fill="#2ca02c" display="" d="M157.95714335646963,242.0135138017373A289,289,0,0,1,152.91253545514462,245.2320462351508L102.43483917376166,163.96609863390472A193.33333333333334,193.33333333333334,0,0,0,105.53049619745576,161.99102490600075Z"><title>Disco</title></path><path fill="#2ca02c" display="" d="M152.06306920347023,245.75968543359716A289,289,0,0,1,146.94216245886813,248.85538148071385L98.44289460827298,166.3934321988769A193.33333333333334,193.33333333333334,0,0,0,101.58537292208729,164.49373783235103Z"><title>Relatos</title></path><path fill="#2ca02c" display="" d="M146.08019450021072,249.36234032985135A289,289,0,0,1,140.88597937766363,252.33339219135573L94.393462164523,168.72359668514818A193.33333333333334,193.33333333333334,0,0,0,97.5809266496156,166.90039104801437Z"><title>Ska</title></path><path fill="#2ca02c" display="" d="M140.01201307703772,252.81937464149266A289,289,0,0,1,134.74752285190613,255.66404730676356L90.28890659702526,170.95523134227693A193.33333333333334,193.33333333333334,0,0,0,93.51949586389712,169.2095791352851Z"><title>Candombe</title></path><path fill="#2ca02c" display="" d="M133.86206858102005,256.12876955783446A289,289,0,0,1,128.53037756734537,258.8454018181425L86.13162485064531,173.08703295846712A193.33333333333334,193.33333333333334,0,0,0,89.40345232613919,171.41995359334788Z"><title>Reggae</title></path><path fill="#2ca02c" display="" d="M127.63395240655858,259.28859248543955A289,289,0,0,1,109.44333255189154,267.4755259083269L73.36784532239503,178.87128626620566A193.33333333333334,193.33333333333334,0,0,0,85.23519968985853,173.53022362576417Z"><title>Varios</title></path><path fill="#2ca02c" display="" d="M108.5171597383957,267.8526200027013A289,289,0,0,1,102.9481661748203,270.0419876264459L69.02422275319842,180.5919002920525A193.33333333333334,193.33333333333334,0,0,0,72.44167250889922,179.24838036058003Z"><title>Folclore</title></path><path fill="#1f77b4" display="" d="M102.01315178511904,270.3965918107443A289,289,0,0,1,96.39288096776329,272.4507524282776L64.64029198166286,182.20705373366627A193.33333333333334,193.33333333333334,0,0,0,68.0892083634971,180.94650447635084Z"><title>Murga</title></path><path fill="#1f77b4" display="" d="M95.44957102392935,272.78265962364225A289,289,0,0,1,-256.1287695578345,-133.86206858102L-171.4199535933479,-89.40345232613913A193.33333333333334,193.33333333333334,0,0,0,63.696982037828924,182.53896092903094Z"><title>Rock</title></path><path fill="#1f77b4" display="" d="M-255.6640473067636,-134.74752285190607A289,289,0,0,1,-249.36234032985138,-146.08019450021067L-166.90039104801443,-97.58092664961553A193.33333333333334,193.33333333333334,0,0,0,-170.95523134227693,-90.28890659702526Z"><title>Metal</title></path><path fill="#1f77b4" display="" d="M-248.85538148071387,-146.94216245886807A289,289,0,0,1,-202.2272812049184,-206.45853515044337L-135.40287776339895,-137.99941474936708A193.33333333333334,193.33333333333334,0,0,0,-166.3934321988769,-98.44289460827298Z"><title>Reggae</title></path><path fill="#1f77b4" display="" d="M-201.51168366232434,-207.15704513140585A289,289,0,0,1,-175.86699019943356,-229.32902511063082L-117.78164700307397,-153.31425702465202A193.33333333333334,193.33333333333334,0,0,0,-134.68728022080487,-138.6979247303296Z"><title>Urbano</title></path><path fill="#1f77b4" display="" d="M-175.07241409438745,-229.93618641519504A289,289,0,0,1,-140.88597937766355,-252.33339219135576L-94.39346216452306,-168.72359668514815A193.33333333333334,193.33333333333334,0,0,0,-116.98707089802764,-153.9214183292164Z"><title>Ska</title></path><path fill="#1f77b4" display="" d="M-140.01201307703786,-252.81937464149257A289,289,0,0,1,-122.23817416175024,-261.87559790404606L-81.92404466085243,-175.11775662160716A193.33333333333334,193.33333333333334,0,0,0,-93.51949586389709,-169.2095791352851Z"><title>Electrónica</title></path><path fill="#1f77b4" display="" d="M-121.33130159811319,-262.29699817669984A289,289,0,0,1,-69.64759341582447,-280.48210768493595L-46.75301031261674,-187.5951326780259A193.33333333333334,193.33333333333334,0,0,0,-81.0171720972151,-175.53915689426108Z"><title>Pop</title></path><path fill="#1f77b4" display="" d="M-68.67665352257868,-280.72142287495564A289,289,0,0,1,-28.39014623075471,-287.602155063199L-19.156960473475245,-192.3818823153456A193.33333333333334,193.33333333333334,0,0,0,-45.78207041937065,-187.8344478680457Z"><title>Funk</title></path><path fill="#1f77b4" display="" d="M-27.39481656855225,-287.6986687928454A289,289,0,0,1,-21.432311503484293,-288.2041915441509L-14.50270011843508,-192.7886134268633A193.33333333333334,193.33333333333334,0,0,0,-18.16163081127247,-192.47839604499208Z"><title>Folk</title></path><path fill="#1f77b4" display="" d="M-20.4349403303538,-288.27662620076376A289,289,0,0,1,-14.461960909838004,-288.63792489318223L-9.839970594927383,-193.0827614171414A193.33333333333334,193.33333333333334,0,0,0,-13.505328945304273,-192.86104808347616Z"><title>Varios</title></path><path fill="#d62728" display="" d="M-13.46313066245848,-288.6862381769619A289,289,0,0,1,-7.483164938275026,-288.90310182223135L-5.1714948056897905,-193.26415451203698A193.33333333333334,193.33333333333334,0,0,0,-8.84114034754746,-193.13107470092106Z"><title>Rock</title></path><path fill="#ff7f0e" display="" d="M-6.483458905382987,-288.92726551958054A289,289,0,0,1,-0.499999009116652,-288.9995674754391L-0.4999990091167926,-193.33268678309074A193.33333333333334,193.33333333333334,0,0,0,-4.171788772797435,-193.28831820938623Z"><title>Rock</title></path></g><g id="labels" transform="translate(402.5,300)" text-anchor="middle"><text transform="rotate(90) translate(48.333333333333336,0) rotate(180)" style="opacity: 1;"><tspan x="0" y="4" style="font-family: Arial, sans-serif; font-size: 10px; fill: black; font-weight: normal; font-style: italic;"/></text><text transform="rotate(-10.384615384615387) translate(145,0) rotate(0)" style="opacity: 1;"><tspan x="0" y="4" style="font-family: Arial, sans-serif; font-size: 10px; fill: black; font-weight: normal; font-style: italic;">LP</tspan></text><text transform="rotate(168.23076923076923) translate(145,0) rotate(180)" style="opacity: 1;"><tspan x="0" y="4" style="font-family: Arial, sans-serif; font-size: 10px; fill: black; font-weight: normal; font-style: italic;">CD</tspan></text><text transform="rotate(267.92307692307696) translate(145,0) rotate(180)" style="opacity: 1;"><tspan x="0" y="4" style="font-family: Arial, sans-serif; font-size: 10px; fill: black; font-weight: normal; font-style: italic;">LP 7'</tspan></text><text transform="rotate(269.3076923076923) translate(145,0) rotate(180)" style="opacity: 0;"><tspan x="0" y="4" style="font-family: Arial, sans-serif; font-size: 10px; fill: black; font-weight: normal; font-style: italic;">DVD-V</tspan></text><text transform="rotate(-45.69230769230769) translate(241.66666666666669,0) rotate(0)" style="opacity: 1;"><tspan x="0" y="4" style="font-family: Arial, sans-serif; font-size: 10px; fill: black; font-weight: bold;">Rock</tspan></text><text transform="rotate(6.230769230769226) translate(241.66666666666669,0) rotate(0)" style="opacity: 1;"><tspan x="0" y="4" style="font-family: Arial, sans-serif; font-size: 10px; fill: black; font-weight: bold;">Pop</tspan></text><text transform="rotate(18.69230769230768) translate(241.66666666666669,0) rotate(0)" style="opacity: 1;"><tspan x="0" y="4" style="font-family: Arial, sans-serif; font-size: 10px; fill: black; font-weight: bold;">Funk</tspan></text><text transform="rotate(27.692307692307665) translate(241.66666666666669,0) rotate(0)" style="opacity: 1;"><tspan x="0" y="4" style="font-family: Arial, sans-serif; font-size: 10px; fill: black; font-weight: bold;">Soul</tspan></text><text transform="rotate(33.230769230769226) translate(241.66666666666669,0) rotate(0)" style="opacity: 0;"><tspan x="0" y="4" style="font-family: Arial, sans-serif; font-size: 10px; fill: black; font-weight: bold;">Folk</tspan></text><text transform="rotate(35.30769230769231) translate(241.66666666666669,0) rotate(0)" style="opacity: 1;"><tspan x="0" y="4" style="font-family: Arial, sans-serif; font-size: 10px; fill: black; font-weight: bold;">Urbano</tspan></text><text transform="rotate(37.3846153846154) translate(241.66666666666669,0) rotate(0)" style="opacity: 0;"><tspan x="0" y="4" style="font-family: Arial, sans-serif; font-size: 10px; fill: black; font-weight: bold;">Electrónica</tspan></text><text transform="rotate(42.230769230769226) translate(241.66666666666669,0) rotate(0)" style="opacity: 0;"><tspan x="0" y="4" style="font-family: Arial, sans-serif; font-size: 10px; fill: black; font-weight: bold;">Hip Hop</tspan></text><text transform="rotate(47.076923076923094) translate(241.66666666666669,0) rotate(0)" style="opacity: 1;"><tspan x="0" y="4" style="font-family: Arial, sans-serif; font-size: 10px; fill: black; font-weight: bold;">R&amp;B</tspan></text><text transform="rotate(52.61538461538461) translate(241.66666666666669,0) rotate(0)" style="opacity: 0;"><tspan x="0" y="4" style="font-family: Arial, sans-serif; font-size: 10px; fill: black; font-weight: bold;">Jazz</tspan></text><text transform="rotate(57.46153846153845) translate(241.66666666666669,0) rotate(0)" style="opacity: 1;"><tspan x="0" y="4" style="font-family: Arial, sans-serif; font-size: 10px; fill: black; font-weight: bold;">Disco</tspan></text><text transform="rotate(58.84615384615387) translate(241.66666666666669,0) rotate(0)" style="opacity: 0;"><tspan x="0" y="4" style="font-family: Arial, sans-serif; font-size: 10px; fill: black; font-weight: bold;">Relatos</tspan></text><text transform="rotate(60.230769230769255) translate(241.66666666666669,0) rotate(0)" style="opacity: 0;"><tspan x="0" y="4" style="font-family: Arial, sans-serif; font-size: 10px; fill: black; font-weight: bold;">Ska</tspan></text><text transform="rotate(61.61538461538464) translate(241.66666666666669,0) rotate(0)" style="opacity: 0;"><tspan x="0" y="4" style="font-family: Arial, sans-serif; font-size: 10px; fill: black; font-weight: bold;">Candombe</tspan></text><text transform="rotate(63.00000000000003) translate(241.66666666666669,0) rotate(0)" style="opacity: 0;"><tspan x="0" y="4" style="font-family: Arial, sans-serif; font-size: 10px; fill: black; font-weight: bold;">Reggae</tspan></text><text transform="rotate(65.7692307692308) translate(241.66666666666669,0) rotate(0)" style="opacity: 1;"><tspan x="0" y="4" style="font-family: Arial, sans-serif; font-size: 10px; fill: black; font-weight: bold;">Varios</tspan></text><text transform="rotate(68.53846153846158) translate(241.66666666666669,0) rotate(0)" style="opacity: 0;"><tspan x="0" y="4" style="font-family: Arial, sans-serif; font-size: 10px; fill: black; font-weight: bold;">Folclore</tspan></text><text transform="rotate(69.9230769230769) translate(241.66666666666669,0) rotate(0)" style="opacity: 0;"><tspan x="0" y="4" style="font-family: Arial, sans-serif; font-size: 10px; fill: black; font-weight: bold;">Murga</tspan></text><text transform="rotate(139.15384615384616) translate(241.66666666666669,0) rotate(180)" style="opacity: 1;"><tspan x="0" y="4" style="font-family: Arial, sans-serif; font-size: 10px; fill: black; font-weight: bold;">Rock</tspan></text><text transform="rotate(209.07692307692304) translate(241.66666666666669,0) rotate(180)" style="opacity: 1;"><tspan x="0" y="4" style="font-family: Arial, sans-serif; font-size: 10px; fill: black; font-weight: bold;">Metal</tspan></text><text transform="rotate(218.07692307692304) translate(241.66666666666669,0) rotate(180)" style="opacity: 1;"><tspan x="0" y="4" style="font-family: Arial, sans-serif; font-size: 10px; fill: black; font-weight: bold;">Reggae</tspan></text><text transform="rotate(229.1538461538462) translate(241.66666666666669,0) rotate(180)" style="opacity: 1;"><tspan x="0" y="4" style="font-family: Arial, sans-serif; font-size: 10px; fill: black; font-weight: bold;">Urbano</tspan></text><text transform="rotate(236.76923076923077) translate(241.66666666666669,0) rotate(180)" style="opacity: 0;"><tspan x="0" y="4" style="font-family: Arial, sans-serif; font-size: 10px; fill: black; font-weight: bold;">Ska</tspan></text><text transform="rotate(243.00000000000006) translate(241.66666666666669,0) rotate(180)" style="opacity: 1;"><tspan x="0" y="4" style="font-family: Arial, sans-serif; font-size: 10px; fill: black; font-weight: bold;">Electrónica</tspan></text><text transform="rotate(250.61538461538464) translate(241.66666666666669,0) rotate(180)" style="opacity: 1;"><tspan x="0" y="4" style="font-family: Arial, sans-serif; font-size: 10px; fill: black; font-weight: bold;">Pop</tspan></text><text transform="rotate(260.3076923076923) translate(241.66666666666669,0) rotate(180)" style="opacity: 1;"><tspan x="0" y="4" style="font-family: Arial, sans-serif; font-size: 10px; fill: black; font-weight: bold;">Funk</tspan></text><text transform="rotate(265.15384615384613) translate(241.66666666666669,0) rotate(180)" style="opacity: 1;"><tspan x="0" y="4" style="font-family: Arial, sans-serif; font-size: 10px; fill: black; font-weight: bold;">Folk</tspan></text><text transform="rotate(266.53846153846166) translate(241.66666666666669,0) rotate(180)" style="opacity: 0;"><tspan x="0" y="4" style="font-family: Arial, sans-serif; font-size: 10px; fill: black; font-weight: bold;">Varios</tspan></text><text transform="rotate(267.92307692307696) translate(241.66666666666669,0) rotate(180)" style="opacity: 0;"><tspan x="0" y="4" style="font-family: Arial, sans-serif; font-size: 10px; fill: black; font-weight: bold;">Rock</tspan></text><text transform="rotate(269.3076923076923) translate(241.66666666666669,0) rotate(180)" style="opacity: 1;"><tspan x="0" y="4" style="font-family: Arial, sans-serif; font-size: 10px; fill: black; font-weight: bold;">Rock</tspan></text></g></svg>